static_grf.mot
version=1
nRows=22
nColumns 19
inDegrees=yes
endheader
time	1_ground_force_vx	1_ground_force_vy	1_ground_force_vz	1_ground_force_px	1_ground_force_py	1_ground_force_pz	1_ground_torque_x	1_ground_torque_y	1_ground_torque_z	2_ground_force_vx	2_ground_force_vy	2_ground_force_vz	2_ground_force_px	2_ground_force_py	2_ground_force_pz	2_ground_torque_x	2_ground_torque_y	2_ground_torque_z
            0.503500	            1.913107	          404.287371	          -28.903888	           -0.279864	            0.006271	           -0.418477	            0.009945	            2.101719	           -0.150259	           -8.705758	          377.557361	           30.586965	           -0.264131	            0.005499	           -0.688940	            0.057087	           -2.475801	           -0.200571
            0.504000	            1.867752	          404.106341	          -28.721123	           -0.279898	            0.006272	           -0.418670	            0.009561	            2.068631	           -0.147024	           -8.984076	          376.818779	           30.866025	           -0.264090	            0.005497	           -0.688503	            0.058615	           -2.458481	           -0.201379
            0.504500	            1.730745	          403.744997	          -28.538904	           -0.279915	            0.006272	           -0.418706	            0.008737	            2.038165	           -0.144069	           -8.751820	          377.372047	           30.867896	           -0.264095	            0.005499	           -0.688869	            0.056993	           -2.457515	           -0.201017
            0.505000	            1.776800	          403.203981	          -28.495481	           -0.280149	            0.006273	           -0.418966	            0.009242	            2.097323	           -0.148223	           -8.706341	          377.740893	           30.775334	           -0.264103	            0.005499	           -0.688909	            0.058049	           -2.518544	           -0.205191
            0.505500	            1.821876	          404.286567	          -28.720236	           -0.279923	            0.006272	           -0.418644	            0.009458	            2.098823	           -0.149099	           -8.895111	          378.108832	           30.682872	           -0.263995	            0.005500	           -0.689200	            0.056962	           -2.421310	           -0.196485
            0.506000	            1.822251	          404.105742	          -28.583442	           -0.280042	            0.006271	           -0.418610	            0.009368	            2.077484	           -0.146946	           -9.127969	          377.739203	           30.822442	           -0.264164	            0.005499	           -0.689004	            0.059483	           -2.461549	           -0.200855
            0.506500	            1.959388	          405.007460	          -28.671630	           -0.279780	            0.006270	           -0.418254	            0.010138	            2.095581	           -0.148352	           -8.939220	          377.371370	           30.867976	           -0.264299	            0.005497	           -0.688718	            0.057687	           -2.435269	           -0.199199
            0.507000	            1.593264	          404.105305	          -28.491161	           -0.280078	            0.006271	           -0.418418	            0.007956	            2.017951	           -0.142274	           -8.892349	          377.371372	           30.914884	           -0.264245	            0.005498	           -0.688718	            0.057765	           -2.451410	           -0.200824
            0.507500	            2.051451	          403.565156	          -28.632185	           -0.280122	            0.006272	           -0.418784	            0.010682	            2.101449	           -0.149094	           -8.941858	          378.107826	           30.917532	           -0.263977	            0.005500	           -0.689097	            0.058811	           -2.486827	           -0.203346
            0.508000	            1.822023	          404.106136	          -28.675153	           -0.279994	            0.006271	           -0.418573	            0.009379	            2.080221	           -0.147611	           -8.706964	          377.924699	           30.869848	           -0.264137	            0.005499	           -0.689079	            0.057927	           -2.514331	           -0.205377
            0.508500	            1.822560	          404.285388	          -28.445101	           -0.280170	            0.006271	           -0.418476	            0.009186	            2.037685	           -0.143369	           -8.751176	          377.188073	           30.820311	           -0.264256	            0.005498	           -0.688847	            0.057527	           -2.479512	           -0.202603
            0.509000	            1.730287	          405.007219	          -28.625205	           -0.279951	            0.006271	           -0.418576	            0.008808	            2.061786	           -0.145723	           -8.845541	          377.371876	           30.821008	           -0.264290	            0.005497	           -0.688667	            0.058236	           -2.484485	           -0.202915
            0.509500	            1.822542	          405.006254	          -28.396153	           -0.279762	            0.006270	           -0.418181	            0.009185	            2.041165	           -0.143112	           -8.802035	          378.292977	           30.777345	           -0.264316	            0.005498	           -0.688972	            0.057562	           -2.473909	           -0.201273
            0.510000	            1.914230	          403.744835	          -28.493503	           -0.280121	            0.006272	           -0.418745	            0.009869	            2.081627	           -0.146907	           -8.753109	          377.740054	           30.963067	           -0.264407	            0.005498	           -0.688860	            0.057447	           -2.479135	           -0.203213
            0.510500	            1.960040	          403.925079	          -28.492844	           -0.279953	            0.006273	           -0.418950	            0.010205	            2.102952	           -0.148342	           -8.846911	          377.740553	           30.728466	           -0.264309	            0.005498	           -0.689007	            0.058412	           -2.494030	           -0.202885
            0.511000	            1.684755	          403.925420	          -28.583873	           -0.279998	            0.006272	           -0.418778	            0.008374	            2.007680	           -0.142074	           -8.752588	          377.557024	           30.633913	           -0.264472	            0.005497	           -0.688887	            0.058152	           -2.508485	           -0.203531
            0.511500	            1.821859	          405.007433	          -28.671289	           -0.280268	            0.006271	           -0.418487	            0.009228	            2.051399	           -0.145223	           -8.755164	          378.292978	           30.824253	           -0.264006	            0.005500	           -0.689169	            0.058364	           -2.521774	           -0.205480
            0.512000	            1.776504	          404.826403	          -28.488524	           -0.280401	            0.006270	           -0.418356	            0.008705	            1.983602	           -0.139590	           -8.891041	          377.003258	           30.866642	           -0.264670	            0.005496	           -0.688773	            0.058529	           -2.481774	           -0.203192
            0.512500	            1.959714	          404.466300	          -28.582237	           -0.280171	            0.006271	           -0.418462	            0.010103	            2.085103	           -0.147347	           -8.752526	          377.556522	           30.774697	           -0.264475	            0.005497	           -0.688640	            0.057559	           -2.482921	           -0.202383
            0.513000	            1.914099	          404.465898	          -28.490411	           -0.280089	            0.006272	           -0.418639	            0.009758	            2.061934	           -0.145242	           -8.891705	          377.187398	           30.867299	           -0.264256	            0.005498	           -0.688695	            0.058425	           -2.478401	           -0.202821
            0.513500	            2.143445	          403.744880	          -28.494072	           -0.280374	            0.006273	           -0.418973	            0.011147	            2.099588	           -0.148177	           -8.893720	          377.740049	           30.822342	           -0.264260	            0.005498	           -0.688907	            0.058358	           -2.478637	           -0.202249
            0.514000	            2.143266	          404.105608	          -28.538382	           -0.280336	            0.006271	           -0.418507	            0.010988	            2.071813	           -0.146314	           -8.849528	          378.476781	           30.824950	           -0.264350	            0.005498	           -0.689041	            0.057757	           -2.470172	           -0.201183
